<svg xmlns="http://www.w3.org/2000/svg" xmlns:xlink="http://www.w3.org/1999/xlink" width="1130" height="455.91"><rect width="1130" height="455.91" rx="0" ry="0" class="a"/><svg height="455.91" viewBox="0 0 113 45.591" width="1130" xmlns="http://www.w3.org/2000/svg" xmlns:xlink="http://www.w3.org/1999/xlink"><style>@keyframes m{0%{transform:translateX(0)}.69%{transform:translateX(-113px)}.8%{transform:translateX(-339px)}.9%{transform:translateX(-452px)}1.05%{transform:translateX(-791px)}10.1%{transform:translateX(-904px)}10.48%{transform:translateX(-1017px)}11.52%{transform:translateX(-1130px)}13.93%{transform:translateX(-1243px)}13.94%{transform:translateX(-1808px)}14.04%{transform:translateX(-1921px)}14.17%{transform:translateX(-2147px)}14.18%{transform:translateX(-2260px)}21.69%{transform:translateX(-2373px)}22.33%{transform:translateX(-2486px)}23.31%{transform:translateX(-2599px)}23.88%{transform:translateX(-2712px)}24.34%{transform:translateX(-2825px)}26.4%{transform:translateX(-2938px)}30.05%{transform:translateX(-3051px)}30.64%{transform:translateX(-3164px)}31.91%{transform:translateX(-3277px)}32.89%{transform:translateX(-3390px)}34.15%{transform:translateX(-3503px)}35.42%{transform:translateX(-3616px)}36.33%{transform:translateX(-3729px)}36.9%{transform:translateX(-3842px)}39.1%{transform:translateX(-3955px)}39.12%{transform:translateX(-4294px)}39.13%{transform:translateX(-4633px)}39.23%{transform:translateX(-4746px)}39.36%{transform:translateX(-4972px)}39.37%{transform:translateX(-5085px)}52.78%{transform:translateX(-5198px)}53.37%{transform:translateX(-5311px)}54.54%{transform:translateX(-5424px)}55.18%{transform:translateX(-5537px)}55.73%{transform:translateX(-5650px)}57.36%{transform:translateX(-5763px)}59.5%{transform:translateX(-5876px)}60.56%{transform:translateX(-5989px)}61.44%{transform:translateX(-6102px)}64.77%{transform:translateX(-6215px)}65.77%{transform:translateX(-6328px)}66.93%{transform:translateX(-6441px)}68.05%{transform:translateX(-6554px)}69.54%{transform:translateX(-6667px)}71.25%{transform:translateX(-6780px)}72.18%{transform:translateX(-6893px)}72.82%{transform:translateX(-7006px)}74.87%{transform:translateX(-7119px)}74.89%{transform:translateX(-7232px)}74.9%{transform:translateX(-7458px)}74.91%{transform:translateX(-7684px)}75%{transform:translateX(-7797px)}75.13%{transform:translateX(-8023px)}75.14%{transform:translateX(-8136px)}87.94%{transform:translateX(-8249px)}88.46%{transform:translateX(-8362px)}89.31%{transform:translateX(-8475px)}89.32%{transform:translateX(-8588px)}89.33%{transform:translateX(-8814px)}89.34%{transform:translateX(-9153px)}89.44%{transform:translateX(-9266px)}89.56%{transform:translateX(-9492px)}89.57%{transform:translateX(-9605px)}95.78%{transform:translateX(-9718px)}96.78%{transform:translateX(-9831px)}97.78%{transform:translateX(-9944px)}98.54%{transform:translateX(-10057px)}99.99%{transform:translateX(-10170px)}to{transform:translateX(-10509px)}}.a{fill:#282d35}.c{fill:#71bef2}.d,.e,.f,.g,.h,.i{white-space:pre}.e,.f,.g,.h,.i{fill:#71bef2}.f,.g,.h,.i{fill:#a8cc8c}.g,.h,.i{fill:#b9c0cb}.h,.i{fill:#6f7783}.i{fill:#e88388}.j{fill:#66c2cd;font-weight:700}.j,.o,.p{white-space:pre}.o{fill:#e88388;font-weight:700}.p{fill:#b9c0cb;text-decoration:underline}</style><g font-family="Monaco,Consolas,Menlo,'Bitstream Vera Sans Mono','Powerline Symbols',monospace" font-size="1.67"><defs><symbol id="1"><path class="c" d="M0 0h8v2.171H0z"/><text y="1.67" class="d">~/Temp</text><text x="8.016" y="1.67" class="e"></text></symbol><symbol id="2"><path class="c" d="M0 0h8v2.171H0z"/><text y="1.67" class="d">~/Temp</text><text x="8.016" y="1.67" class="e"></text><text x="10.02" y="1.67" class="f">pwd</text></symbol><symbol id="3"><text y="1.67" class="g">/Users/azat/Temp</text></symbol><symbol id="4"><path class="c" d="M0 0h8v2.171H0z"/><text y="1.67" class="d">~/Temp</text><text x="8.016" y="1.67" class="e"></text><text x="10.02" y="1.67" class="f">mkdir</text><text x="16.032" y="1.67" class="h">-p</text><text x="19.038" y="1.67" class="h">temp/foo</text></symbol><symbol id="5"><path class="c" d="M0 0h8v2.171H0z"/><text y="1.67" class="d">~/Temp</text><text x="8.016" y="1.67" class="e"></text><text x="10.02" y="1.67" class="f">mkdir</text><text x="16.032" y="1.67" class="g">test/foo</text></symbol><symbol id="6"><text y="1.67" class="g">mkdir:</text><text x="7.014" y="1.67" class="g">test:</text><text x="13.026" y="1.67" class="g">No</text><text x="16.032" y="1.67" class="g">such</text><text x="21.042" y="1.67" class="g">file</text><text x="26.052" y="1.67" class="g">or</text><text x="29.058" y="1.67" class="g">directory</text></symbol><symbol id="7">0<text y="1.67" class="g"></text>0<text x="1.002" y="1.67" class="i">✘</text><path class="c" d="M3.006 0h9v2.171h-9z"/><text x="3.006" y="1.67" class="d"> ~/Temp</text><text x="12.024" y="1.67" class="e"></text></symbol><symbol id="8">0<text y="1.67" class="g"></text>0<text x="1.002" y="1.67" class="i">✘</text><path class="c" d="M3.006 0h9v2.171h-9z"/><text x="3.006" y="1.67" class="d"> ~/Temp</text><text x="12.024" y="1.67" class="e"></text><text x="14.028" y="1.67" class="f">mkdir</text><text x="20.04" y="1.67" class="h">test/foo</text></symbol><symbol id="9">0<text y="1.67" class="g"></text>0<text x="1.002" y="1.67" class="i">✘</text><path class="c" d="M3.006 0h9v2.171h-9z"/><text x="3.006" y="1.67" class="d"> ~/Temp</text><text x="12.024" y="1.67" class="e"></text><text x="14.028" y="1.67" class="f">mkdir</text><text x="20.04" y="1.67" class="g">-p</text><text x="23.046" y="1.67" class="h">temp/foo</text></symbol><symbol id="10">0<text y="1.67" class="g"></text>0<text x="1.002" y="1.67" class="i">✘</text><path class="c" d="M3.006 0h9v2.171h-9z"/><text x="3.006" y="1.67" class="d"> ~/Temp</text><text x="12.024" y="1.67" class="e"></text><text x="14.028" y="1.67" class="f">mkdir</text><text x="20.04" y="1.67" class="g">-p</text><text x="23.046" y="1.67" class="g">test/foo</text></symbol><symbol id="11"><path class="c" d="M0 0h8v2.171H0z"/><text y="1.67" class="d">~/Temp</text><text x="8.016" y="1.67" class="e"></text><text x="10.02" y="1.67" class="f">ls</text></symbol><symbol id="12"><text y="1.67" class="g">first.cast</text><text x="12.024" y="1.67" class="g">first.svg</text><text x="24.048" y="1.67" class="g">fisrst.svg</text><text x="36.072" y="1.67" class="g">mkdirp.cast</text><text x="48.096" y="1.67" class="j">temp</text><text x="60.12" y="1.67" class="j">test</text></symbol><symbol id="13"><path class="c" d="M0 0h8v2.171H0z"/><text y="1.67" class="d">~/Temp</text><text x="8.016" y="1.67" class="e"></text><text x="10.02" y="1.67" class="f">exit</text></symbol><symbol id="a"><path fill="transparent" d="M0 0h113v21H0z"/></symbol><symbol id="b"><path fill="#6f7683" d="M0 0h1.102v2.171H0z"/></symbol></defs><path class="a" d="M0 0h113v45.591H0z"/><g style="animation-duration:20.896173s;animation-iteration-count:infinite;animation-name:m;animation-timing-function:steps(1,end)"><svg width="10622"><svg><use xlink:href="#a"/><use xlink:href="#b" x="-.004"/></svg><svg x="113"><use xlink:href="#a"/><use xlink:href="#b" x="-.004"/></svg><svg x="226"><use xlink:href="#a"/><use xlink:href="#b" x="-.004"/></svg><svg x="339"><use xlink:href="#a"/><use xlink:href="#b" x="-.004"/></svg><svg x="452"><use xlink:href="#a"/><use xlink:href="#b" x="-.004"/></svg><svg x="565"><use xlink:href="#a"/><use xlink:href="#b" x="9.996"/><use xlink:href="#1"/></svg><svg x="678"><use xlink:href="#a"/><use xlink:href="#b" x="9.996"/><use xlink:href="#1"/></svg><svg x="791"><use xlink:href="#a"/><use xlink:href="#b" x="9.996"/><use xlink:href="#1"/></svg><svg x="904"><use xlink:href="#a"/><use xlink:href="#b" x="10.996"/><path class="c" d="M0 0h8v2.171H0z"/><text y="1.67" class="d">~/Temp</text><text x="8.016" y="1.67" class="e"></text><text x="10.02" y="1.67" class="o">p</text><text x="11.022" y="1.67" class="h">wd</text></svg><svg x="1017"><use xlink:href="#a"/><use xlink:href="#b" x="11.996"/><path class="c" d="M0 0h8v2.171H0z"/><text y="1.67" class="d">~/Temp</text><text x="8.016" y="1.67" class="e"></text><text x="10.02" y="1.67" class="o">pw</text><text x="12.024" y="1.67" class="h">d</text></svg><svg x="1130"><use xlink:href="#a"/><use xlink:href="#b" x="12.996"/><use xlink:href="#2"/></svg><svg x="1243"><use xlink:href="#a"/><use xlink:href="#b" x="12.996"/><use xlink:href="#2"/></svg><svg x="1356"><use xlink:href="#a"/><use xlink:href="#b" x="-.004" y="2.146"/><use xlink:href="#2"/></svg><svg x="1469"><use xlink:href="#a"/><use xlink:href="#b" x="-.004" y="2.146"/><use xlink:href="#2"/></svg><svg x="1582"><use xlink:href="#a"/><use xlink:href="#b" x="-.004" y="2.146"/><use xlink:href="#2"/></svg><svg x="1695"><use xlink:href="#a"/><use xlink:href="#b" x="-.004" y="4.317"/><use xlink:href="#2"/><use xlink:href="#3" y="2.171"/></svg><svg x="1808"><use xlink:href="#a"/><use xlink:href="#b" x="-.004" y="4.317"/><use xlink:href="#2"/><use xlink:href="#3" y="2.171"/></svg><svg x="1921"><use xlink:href="#a"/><use xlink:href="#b" x="-.004" y="4.317"/><use xlink:href="#2"/><use xlink:href="#3" y="2.171"/></svg><svg x="2034"><use xlink:href="#a"/><use xlink:href="#b" x="9.996" y="4.317"/><use xlink:href="#2"/><use xlink:href="#3" y="2.171"/><use xlink:href="#1" y="4.342"/></svg><svg x="2147"><use xlink:href="#a"/><use xlink:href="#b" x="9.996" y="4.317"/><use xlink:href="#2"/><use xlink:href="#3" y="2.171"/><use xlink:href="#1" y="4.342"/></svg><svg x="2260"><use xlink:href="#a"/><use xlink:href="#b" x="9.996" y="4.317"/><use xlink:href="#2"/><use xlink:href="#3" y="2.171"/><use xlink:href="#1" y="4.342"/></svg><svg x="2373"><use xlink:href="#a"/><use xlink:href="#b" x="10.996" y="4.317"/><use xlink:href="#2"/><use xlink:href="#3" y="2.171"/><path class="c" d="M0 4.342h8v2.171H0z"/><text y="6.012" class="d">~/Temp</text><text x="8.016" y="6.012" class="e"></text><text x="10.02" y="6.012" class="p">m</text><text x="11.022" y="6.012" class="h">kdir</text><text x="16.032" y="6.012" class="h">-p</text><text x="19.038" y="6.012" class="h">temp/foo</text></svg><svg x="2486"><use xlink:href="#a"/><use xlink:href="#b" x="11.996" y="4.317"/><use xlink:href="#2"/><use xlink:href="#3" y="2.171"/><path class="c" d="M0 4.342h8v2.171H0z"/><text y="6.012" class="d">~/Temp</text><text x="8.016" y="6.012" class="e"></text><text x="10.02" y="6.012" class="p">mk</text><text x="12.024" y="6.012" class="h">dir</text><text x="16.032" y="6.012" class="h">-p</text><text x="19.038" y="6.012" class="h">temp/foo</text></svg><svg x="2599"><use xlink:href="#a"/><use xlink:href="#b" x="12.996" y="4.317"/><use xlink:href="#2"/><use xlink:href="#3" y="2.171"/><path class="c" d="M0 4.342h8v2.171H0z"/><text y="6.012" class="d">~/Temp</text><text x="8.016" y="6.012" class="e"></text><text x="10.02" y="6.012" class="p">mkd</text><text x="13.026" y="6.012" class="h">ir</text><text x="16.032" y="6.012" class="h">-p</text><text x="19.038" y="6.012" class="h">temp/foo</text></svg><svg x="2712"><use xlink:href="#a"/><use xlink:href="#b" x="13.996" y="4.317"/><use xlink:href="#2"/><use xlink:href="#3" y="2.171"/><path class="c" d="M0 4.342h8v2.171H0z"/><text y="6.012" class="d">~/Temp</text><text x="8.016" y="6.012" class="e"></text><text x="10.02" y="6.012" class="p">mkdi</text><text x="14.028" y="6.012" class="h">r</text><text x="16.032" y="6.012" class="h">-p</text><text x="19.038" y="6.012" class="h">temp/foo</text></svg><svg x="2825"><use xlink:href="#a"/><use xlink:href="#b" x="14.996" y="4.317"/><use xlink:href="#2"/><use xlink:href="#3" y="2.171"/><use xlink:href="#4" y="4.342"/></svg><svg x="2938"><use xlink:href="#a"/><use xlink:href="#b" x="15.996" y="4.317"/><use xlink:href="#2"/><use xlink:href="#3" y="2.171"/><use xlink:href="#4" y="4.342"/></svg><svg x="3051"><use xlink:href="#a"/><use xlink:href="#b" x="16.996" y="4.317"/><use xlink:href="#2"/><use xlink:href="#3" y="2.171"/><path class="c" d="M0 4.342h8v2.171H0z"/><text y="6.012" class="d">~/Temp</text><text x="8.016" y="6.012" class="e"></text><text x="10.02" y="6.012" class="f">mkdir</text><text x="16.032" y="6.012" class="p">t</text><text x="17.034" y="6.012" class="h">emp/foo</text></svg><svg x="3164"><use xlink:href="#a"/><use xlink:href="#b" x="17.996" y="4.317"/><use xlink:href="#2"/><use xlink:href="#3" y="2.171"/><path class="c" d="M0 4.342h8v2.171H0z"/><text y="6.012" class="d">~/Temp</text><text x="8.016" y="6.012" class="e"></text><text x="10.02" y="6.012" class="f">mkdir</text><text x="16.032" y="6.012" class="p">te</text><text x="18.036" y="6.012" class="h">mp/foo</text></svg><svg x="3277"><use xlink:href="#a"/><use xlink:href="#b" x="18.996" y="4.317"/><use xlink:href="#2"/><use xlink:href="#3" y="2.171"/><path class="c" d="M0 4.342h8v2.171H0z"/><text y="6.012" class="d">~/Temp</text><text x="8.016" y="6.012" class="e"></text><text x="10.02" y="6.012" class="f">mkdir</text><text x="16.032" y="6.012" class="g">tes</text></svg><svg x="3390"><use xlink:href="#a"/><use xlink:href="#b" x="19.996" y="4.317"/><use xlink:href="#2"/><use xlink:href="#3" y="2.171"/><path class="c" d="M0 4.342h8v2.171H0z"/><text y="6.012" class="d">~/Temp</text><text x="8.016" y="6.012" class="e"></text><text x="10.02" y="6.012" class="f">mkdir</text><text x="16.032" y="6.012" class="g">test</text></svg><svg x="3503"><use xlink:href="#a"/><use xlink:href="#b" x="20.996" y="4.317"/><use xlink:href="#2"/><use xlink:href="#3" y="2.171"/><path class="c" d="M0 4.342h8v2.171H0z"/><text y="6.012" class="d">~/Temp</text><text x="8.016" y="6.012" class="e"></text><text x="10.02" y="6.012" class="f">mkdir</text><text x="16.032" y="6.012" class="g">test/</text></svg><svg x="3616"><use xlink:href="#a"/><use xlink:href="#b" x="21.996" y="4.317"/><use xlink:href="#2"/><use xlink:href="#3" y="2.171"/><path class="c" d="M0 4.342h8v2.171H0z"/><text y="6.012" class="d">~/Temp</text><text x="8.016" y="6.012" class="e"></text><text x="10.02" y="6.012" class="f">mkdir</text><text x="16.032" y="6.012" class="g">test/f</text></svg><svg x="3729"><use xlink:href="#a"/><use xlink:href="#b" x="22.996" y="4.317"/><use xlink:href="#2"/><use xlink:href="#3" y="2.171"/><path class="c" d="M0 4.342h8v2.171H0z"/><text y="6.012" class="d">~/Temp</text><text x="8.016" y="6.012" class="e"></text><text x="10.02" y="6.012" class="f">mkdir</text><text x="16.032" y="6.012" class="g">test/fo</text></svg><svg x="3842"><use xlink:href="#a"/><use xlink:href="#b" x="23.996" y="4.317"/><use xlink:href="#2"/><use xlink:href="#3" y="2.171"/><use xlink:href="#5" y="4.342"/></svg><svg x="3955"><use xlink:href="#a"/><use xlink:href="#b" x="23.996" y="4.317"/><use xlink:href="#2"/><use xlink:href="#3" y="2.171"/><use xlink:href="#5" y="4.342"/></svg><svg x="4068"><use xlink:href="#a"/><use xlink:href="#b" x="-.004" y="6.488"/><use xlink:href="#2"/><use xlink:href="#3" y="2.171"/><use xlink:href="#5" y="4.342"/></svg><svg x="4181"><use xlink:href="#a"/><use xlink:href="#b" x="-.004" y="6.488"/><use xlink:href="#2"/><use xlink:href="#3" y="2.171"/><use xlink:href="#5" y="4.342"/></svg><svg x="4294"><use xlink:href="#a"/><use xlink:href="#b" x="-.004" y="6.488"/><use xlink:href="#2"/><use xlink:href="#3" y="2.171"/><use xlink:href="#5" y="4.342"/></svg><svg x="4407"><use xlink:href="#a"/><use xlink:href="#b" x="-.004" y="8.659"/><use xlink:href="#2"/><use xlink:href="#3" y="2.171"/><use xlink:href="#5" y="4.342"/><use xlink:href="#6" y="6.513"/></svg><svg x="4520"><use xlink:href="#a"/><use xlink:href="#b" x="-.004" y="8.659"/><use xlink:href="#2"/><use xlink:href="#3" y="2.171"/><use xlink:href="#5" y="4.342"/><use xlink:href="#6" y="6.513"/></svg><svg x="4633"><use xlink:href="#a"/><use xlink:href="#b" x="-.004" y="8.659"/><use xlink:href="#2"/><use xlink:href="#3" y="2.171"/><use xlink:href="#5" y="4.342"/><use xlink:href="#6" y="6.513"/></svg><svg x="4746"><use xlink:href="#a"/><use xlink:href="#b" x="-.004" y="8.659"/><use xlink:href="#2"/><use xlink:href="#3" y="2.171"/><use xlink:href="#5" y="4.342"/><use xlink:href="#6" y="6.513"/></svg><svg x="4859"><use xlink:href="#a"/><use xlink:href="#b" x="13.996" y="8.659"/><use xlink:href="#2"/><use xlink:href="#3" y="2.171"/><use xlink:href="#5" y="4.342"/><use xlink:href="#6" y="6.513"/><use xlink:href="#7" y="8.684"/></svg><svg x="4972"><use xlink:href="#a"/><use xlink:href="#b" x="13.996" y="8.659"/><use xlink:href="#2"/><use xlink:href="#3" y="2.171"/><use xlink:href="#5" y="4.342"/><use xlink:href="#6" y="6.513"/><use xlink:href="#7" y="8.684"/></svg><svg x="5085"><use xlink:href="#a"/><use xlink:href="#b" x="13.996" y="8.659"/><use xlink:href="#2"/><use xlink:href="#3" y="2.171"/><use xlink:href="#5" y="4.342"/><use xlink:href="#6" y="6.513"/><use xlink:href="#7" y="8.684"/></svg><svg x="5198"><use xlink:href="#a"/><use xlink:href="#b" x="14.996" y="8.659"/><use xlink:href="#2"/><use xlink:href="#3" y="2.171"/><use xlink:href="#5" y="4.342"/><use xlink:href="#6" y="6.513"/>0<text y="10.354" class="g"></text>0<text x="1.002" y="10.354" class="i">✘</text><path class="c" d="M3.006 8.684h9v2.171h-9z"/><text x="3.006" y="10.354" class="d"> ~/Temp</text><text x="12.024" y="10.354" class="e"></text><text x="14.028" y="10.354" class="p">m</text><text x="15.03" y="10.354" class="h">kdir</text><text x="20.04" y="10.354" class="h">test/foo</text></svg><svg x="5311"><use xlink:href="#a"/><use xlink:href="#b" x="15.996" y="8.659"/><use xlink:href="#2"/><use xlink:href="#3" y="2.171"/><use xlink:href="#5" y="4.342"/><use xlink:href="#6" y="6.513"/>0<text y="10.354" class="g"></text>0<text x="1.002" y="10.354" class="i">✘</text><path class="c" d="M3.006 8.684h9v2.171h-9z"/><text x="3.006" y="10.354" class="d"> ~/Temp</text><text x="12.024" y="10.354" class="e"></text><text x="14.028" y="10.354" class="p">mk</text><text x="16.032" y="10.354" class="h">dir</text><text x="20.04" y="10.354" class="h">test/foo</text></svg><svg x="5424"><use xlink:href="#a"/><use xlink:href="#b" x="16.996" y="8.659"/><use xlink:href="#2"/><use xlink:href="#3" y="2.171"/><use xlink:href="#5" y="4.342"/><use xlink:href="#6" y="6.513"/>0<text y="10.354" class="g"></text>0<text x="1.002" y="10.354" class="i">✘</text><path class="c" d="M3.006 8.684h9v2.171h-9z"/><text x="3.006" y="10.354" class="d"> ~/Temp</text><text x="12.024" y="10.354" class="e"></text><text x="14.028" y="10.354" class="p">mkd</text><text x="17.034" y="10.354" class="h">ir</text><text x="20.04" y="10.354" class="h">test/foo</text></svg><svg x="5537"><use xlink:href="#a"/><use xlink:href="#b" x="17.996" y="8.659"/><use xlink:href="#2"/><use xlink:href="#3" y="2.171"/><use xlink:href="#5" y="4.342"/><use xlink:href="#6" y="6.513"/>0<text y="10.354" class="g"></text>0<text x="1.002" y="10.354" class="i">✘</text><path class="c" d="M3.006 8.684h9v2.171h-9z"/><text x="3.006" y="10.354" class="d"> ~/Temp</text><text x="12.024" y="10.354" class="e"></text><text x="14.028" y="10.354" class="p">mkdi</text><text x="18.036" y="10.354" class="h">r</text><text x="20.04" y="10.354" class="h">test/foo</text></svg><svg x="5650"><use xlink:href="#a"/><use xlink:href="#b" x="18.996" y="8.659"/><use xlink:href="#2"/><use xlink:href="#3" y="2.171"/><use xlink:href="#5" y="4.342"/><use xlink:href="#6" y="6.513"/><use xlink:href="#8" y="8.684"/></svg><svg x="5763"><use xlink:href="#a"/><use xlink:href="#b" x="19.996" y="8.659"/><use xlink:href="#2"/><use xlink:href="#3" y="2.171"/><use xlink:href="#5" y="4.342"/><use xlink:href="#6" y="6.513"/><use xlink:href="#8" y="8.684"/></svg><svg x="5876"><use xlink:href="#a"/><use xlink:href="#b" x="20.996" y="8.659"/><use xlink:href="#2"/><use xlink:href="#3" y="2.171"/><use xlink:href="#5" y="4.342"/><use xlink:href="#6" y="6.513"/>0<text y="10.354" class="g"></text>0<text x="1.002" y="10.354" class="i">✘</text><path class="c" d="M3.006 8.684h9v2.171h-9z"/><text x="3.006" y="10.354" class="d"> ~/Temp</text><text x="12.024" y="10.354" class="e"></text><text x="14.028" y="10.354" class="f">mkdir</text><text x="20.04" y="10.354" class="g">-</text><text x="21.042" y="10.354" class="h">p</text><text x="23.046" y="10.354" class="h">temp/foo</text></svg><svg x="5989"><use xlink:href="#a"/><use xlink:href="#b" x="21.996" y="8.659"/><use xlink:href="#2"/><use xlink:href="#3" y="2.171"/><use xlink:href="#5" y="4.342"/><use xlink:href="#6" y="6.513"/><use xlink:href="#9" y="8.684"/></svg><svg x="6102"><use xlink:href="#a"/><use xlink:href="#b" x="22.996" y="8.659"/><use xlink:href="#2"/><use xlink:href="#3" y="2.171"/><use xlink:href="#5" y="4.342"/><use xlink:href="#6" y="6.513"/><use xlink:href="#9" y="8.684"/></svg><svg x="6215"><use xlink:href="#a"/><use xlink:href="#b" x="23.996" y="8.659"/><use xlink:href="#2"/><use xlink:href="#3" y="2.171"/><use xlink:href="#5" y="4.342"/><use xlink:href="#6" y="6.513"/>0<text y="10.354" class="g"></text>0<text x="1.002" y="10.354" class="i">✘</text><path class="c" d="M3.006 8.684h9v2.171h-9z"/><text x="3.006" y="10.354" class="d"> ~/Temp</text><text x="12.024" y="10.354" class="e"></text><text x="14.028" y="10.354" class="f">mkdir</text><text x="20.04" y="10.354" class="g">-p</text><text x="23.046" y="10.354" class="p">t</text><text x="24.048" y="10.354" class="h">emp/foo</text></svg><svg x="6328"><use xlink:href="#a"/><use xlink:href="#b" x="24.996" y="8.659"/><use xlink:href="#2"/><use xlink:href="#3" y="2.171"/><use xlink:href="#5" y="4.342"/><use xlink:href="#6" y="6.513"/>0<text y="10.354" class="g"></text>0<text x="1.002" y="10.354" class="i">✘</text><path class="c" d="M3.006 8.684h9v2.171h-9z"/><text x="3.006" y="10.354" class="d"> ~/Temp</text><text x="12.024" y="10.354" class="e"></text><text x="14.028" y="10.354" class="f">mkdir</text><text x="20.04" y="10.354" class="g">-p</text><text x="23.046" y="10.354" class="p">te</text><text x="25.05" y="10.354" class="h">mp/foo</text></svg><svg x="6441"><use xlink:href="#a"/><use xlink:href="#b" x="25.996" y="8.659"/><use xlink:href="#2"/><use xlink:href="#3" y="2.171"/><use xlink:href="#5" y="4.342"/><use xlink:href="#6" y="6.513"/>0<text y="10.354" class="g"></text>0<text x="1.002" y="10.354" class="i">✘</text><path class="c" d="M3.006 8.684h9v2.171h-9z"/><text x="3.006" y="10.354" class="d"> ~/Temp</text><text x="12.024" y="10.354" class="e"></text><text x="14.028" y="10.354" class="f">mkdir</text><text x="20.04" y="10.354" class="g">-p</text><text x="23.046" y="10.354" class="g">tes</text></svg><svg x="6554"><use xlink:href="#a"/><use xlink:href="#b" x="26.996" y="8.659"/><use xlink:href="#2"/><use xlink:href="#3" y="2.171"/><use xlink:href="#5" y="4.342"/><use xlink:href="#6" y="6.513"/>0<text y="10.354" class="g"></text>0<text x="1.002" y="10.354" class="i">✘</text><path class="c" d="M3.006 8.684h9v2.171h-9z"/><text x="3.006" y="10.354" class="d"> ~/Temp</text><text x="12.024" y="10.354" class="e"></text><text x="14.028" y="10.354" class="f">mkdir</text><text x="20.04" y="10.354" class="g">-p</text><text x="23.046" y="10.354" class="g">test</text></svg><svg x="6667"><use xlink:href="#a"/><use xlink:href="#b" x="27.996" y="8.659"/><use xlink:href="#2"/><use xlink:href="#3" y="2.171"/><use xlink:href="#5" y="4.342"/><use xlink:href="#6" y="6.513"/>0<text y="10.354" class="g"></text>0<text x="1.002" y="10.354" class="i">✘</text><path class="c" d="M3.006 8.684h9v2.171h-9z"/><text x="3.006" y="10.354" class="d"> ~/Temp</text><text x="12.024" y="10.354" class="e"></text><text x="14.028" y="10.354" class="f">mkdir</text><text x="20.04" y="10.354" class="g">-p</text><text x="23.046" y="10.354" class="g">test/</text></svg><svg x="6780"><use xlink:href="#a"/><use xlink:href="#b" x="28.996" y="8.659"/><use xlink:href="#2"/><use xlink:href="#3" y="2.171"/><use xlink:href="#5" y="4.342"/><use xlink:href="#6" y="6.513"/>0<text y="10.354" class="g"></text>0<text x="1.002" y="10.354" class="i">✘</text><path class="c" d="M3.006 8.684h9v2.171h-9z"/><text x="3.006" y="10.354" class="d"> ~/Temp</text><text x="12.024" y="10.354" class="e"></text><text x="14.028" y="10.354" class="f">mkdir</text><text x="20.04" y="10.354" class="g">-p</text><text x="23.046" y="10.354" class="g">test/f</text></svg><svg x="6893"><use xlink:href="#a"/><use xlink:href="#b" x="29.996" y="8.659"/><use xlink:href="#2"/><use xlink:href="#3" y="2.171"/><use xlink:href="#5" y="4.342"/><use xlink:href="#6" y="6.513"/>0<text y="10.354" class="g"></text>0<text x="1.002" y="10.354" class="i">✘</text><path class="c" d="M3.006 8.684h9v2.171h-9z"/><text x="3.006" y="10.354" class="d"> ~/Temp</text><text x="12.024" y="10.354" class="e"></text><text x="14.028" y="10.354" class="f">mkdir</text><text x="20.04" y="10.354" class="g">-p</text><text x="23.046" y="10.354" class="g">test/fo</text></svg><svg x="7006"><use xlink:href="#a"/><use xlink:href="#b" x="30.996" y="8.659"/><use xlink:href="#2"/><use xlink:href="#3" y="2.171"/><use xlink:href="#5" y="4.342"/><use xlink:href="#6" y="6.513"/><use xlink:href="#10" y="8.684"/></svg><svg x="7119"><use xlink:href="#a"/><use xlink:href="#b" x="30.996" y="8.659"/><use xlink:href="#2"/><use xlink:href="#3" y="2.171"/><use xlink:href="#5" y="4.342"/><use xlink:href="#6" y="6.513"/><use xlink:href="#10" y="8.684"/></svg><svg x="7232"><use xlink:href="#a"/><use xlink:href="#b" x="-.004" y="10.83"/><use xlink:href="#2"/><use xlink:href="#3" y="2.171"/><use xlink:href="#5" y="4.342"/><use xlink:href="#6" y="6.513"/><use xlink:href="#10" y="8.684"/></svg><svg x="7345"><use xlink:href="#a"/><use xlink:href="#b" x="-.004" y="10.83"/><use xlink:href="#2"/><use xlink:href="#3" y="2.171"/><use xlink:href="#5" y="4.342"/><use xlink:href="#6" y="6.513"/><use xlink:href="#10" y="8.684"/></svg><svg x="7458"><use xlink:href="#a"/><use xlink:href="#b" x="-.004" y="10.83"/><use xlink:href="#2"/><use xlink:href="#3" y="2.171"/><use xlink:href="#5" y="4.342"/><use xlink:href="#6" y="6.513"/><use xlink:href="#10" y="8.684"/></svg><svg x="7571"><use xlink:href="#a"/><use xlink:href="#b" x="-.004" y="10.83"/><use xlink:href="#2"/><use xlink:href="#3" y="2.171"/><use xlink:href="#5" y="4.342"/><use xlink:href="#6" y="6.513"/><use xlink:href="#10" y="8.684"/></svg><svg x="7684"><use xlink:href="#a"/><use xlink:href="#b" x="-.004" y="10.83"/><use xlink:href="#2"/><use xlink:href="#3" y="2.171"/><use xlink:href="#5" y="4.342"/><use xlink:href="#6" y="6.513"/><use xlink:href="#10" y="8.684"/></svg><svg x="7797"><use xlink:href="#a"/><use xlink:href="#b" x="-.004" y="10.83"/><use xlink:href="#2"/><use xlink:href="#3" y="2.171"/><use xlink:href="#5" y="4.342"/><use xlink:href="#6" y="6.513"/><use xlink:href="#10" y="8.684"/></svg><svg x="7910"><use xlink:href="#a"/><use xlink:href="#b" x="9.996" y="10.83"/><use xlink:href="#2"/><use xlink:href="#3" y="2.171"/><use xlink:href="#5" y="4.342"/><use xlink:href="#6" y="6.513"/><use xlink:href="#10" y="8.684"/><use xlink:href="#1" y="10.855"/></svg><svg x="8023"><use xlink:href="#a"/><use xlink:href="#b" x="9.996" y="10.83"/><use xlink:href="#2"/><use xlink:href="#3" y="2.171"/><use xlink:href="#5" y="4.342"/><use xlink:href="#6" y="6.513"/><use xlink:href="#10" y="8.684"/><use xlink:href="#1" y="10.855"/></svg><svg x="8136"><use xlink:href="#a"/><use xlink:href="#b" x="9.996" y="10.83"/><use xlink:href="#2"/><use xlink:href="#3" y="2.171"/><use xlink:href="#5" y="4.342"/><use xlink:href="#6" y="6.513"/><use xlink:href="#10" y="8.684"/><use xlink:href="#1" y="10.855"/></svg><svg x="8249"><use xlink:href="#a"/><use xlink:href="#b" x="10.996" y="10.83"/><use xlink:href="#2"/><use xlink:href="#3" y="2.171"/><use xlink:href="#5" y="4.342"/><use xlink:href="#6" y="6.513"/><use xlink:href="#10" y="8.684"/><path class="c" d="M0 10.855h8v2.171H0z"/><text y="12.525" class="d">~/Temp</text><text x="8.016" y="12.525" class="e"></text><text x="10.02" y="12.525" class="f">l</text><text x="11.022" y="12.525" class="h">s</text></svg><svg x="8362"><use xlink:href="#a"/><use xlink:href="#b" x="11.996" y="10.83"/><use xlink:href="#2"/><use xlink:href="#3" y="2.171"/><use xlink:href="#5" y="4.342"/><use xlink:href="#6" y="6.513"/><use xlink:href="#10" y="8.684"/><use xlink:href="#11" y="10.855"/></svg><svg x="8475"><use xlink:href="#a"/><use xlink:href="#b" x="11.996" y="10.83"/><use xlink:href="#2"/><use xlink:href="#3" y="2.171"/><use xlink:href="#5" y="4.342"/><use xlink:href="#6" y="6.513"/><use xlink:href="#10" y="8.684"/><use xlink:href="#11" y="10.855"/></svg><svg x="8588"><use xlink:href="#a"/><use xlink:href="#b" x="-.004" y="13.001"/><use xlink:href="#2"/><use xlink:href="#3" y="2.171"/><use xlink:href="#5" y="4.342"/><use xlink:href="#6" y="6.513"/><use xlink:href="#10" y="8.684"/><use xlink:href="#11" y="10.855"/></svg><svg x="8701"><use xlink:href="#a"/><use xlink:href="#b" x="-.004" y="13.001"/><use xlink:href="#2"/><use xlink:href="#3" y="2.171"/><use xlink:href="#5" y="4.342"/><use xlink:href="#6" y="6.513"/><use xlink:href="#10" y="8.684"/><use xlink:href="#11" y="10.855"/></svg><svg x="8814"><use xlink:href="#a"/><use xlink:href="#b" x="-.004" y="13.001"/><use xlink:href="#2"/><use xlink:href="#3" y="2.171"/><use xlink:href="#5" y="4.342"/><use xlink:href="#6" y="6.513"/><use xlink:href="#10" y="8.684"/><use xlink:href="#11" y="10.855"/></svg><svg x="8927"><use xlink:href="#a"/><use xlink:href="#b" x="-.004" y="15.172"/><use xlink:href="#2"/><use xlink:href="#3" y="2.171"/><use xlink:href="#5" y="4.342"/><use xlink:href="#6" y="6.513"/><use xlink:href="#10" y="8.684"/><use xlink:href="#11" y="10.855"/><use xlink:href="#12" y="13.026"/></svg><svg x="9040"><use xlink:href="#a"/><use xlink:href="#b" x="-.004" y="15.172"/><use xlink:href="#2"/><use xlink:href="#3" y="2.171"/><use xlink:href="#5" y="4.342"/><use xlink:href="#6" y="6.513"/><use xlink:href="#10" y="8.684"/><use xlink:href="#11" y="10.855"/><use xlink:href="#12" y="13.026"/></svg><svg x="9153"><use xlink:href="#a"/><use xlink:href="#b" x="-.004" y="15.172"/><use xlink:href="#2"/><use xlink:href="#3" y="2.171"/><use xlink:href="#5" y="4.342"/><use xlink:href="#6" y="6.513"/><use xlink:href="#10" y="8.684"/><use xlink:href="#11" y="10.855"/><use xlink:href="#12" y="13.026"/></svg><svg x="9266"><use xlink:href="#a"/><use xlink:href="#b" x="-.004" y="15.172"/><use xlink:href="#2"/><use xlink:href="#3" y="2.171"/><use xlink:href="#5" y="4.342"/><use xlink:href="#6" y="6.513"/><use xlink:href="#10" y="8.684"/><use xlink:href="#11" y="10.855"/><use xlink:href="#12" y="13.026"/></svg><svg x="9379"><use xlink:href="#a"/><use xlink:href="#b" x="9.996" y="15.172"/><use xlink:href="#2"/><use xlink:href="#3" y="2.171"/><use xlink:href="#5" y="4.342"/><use xlink:href="#6" y="6.513"/><use xlink:href="#10" y="8.684"/><use xlink:href="#11" y="10.855"/><use xlink:href="#12" y="13.026"/><use xlink:href="#1" y="15.197"/></svg><svg x="9492"><use xlink:href="#a"/><use xlink:href="#b" x="9.996" y="15.172"/><use xlink:href="#2"/><use xlink:href="#3" y="2.171"/><use xlink:href="#5" y="4.342"/><use xlink:href="#6" y="6.513"/><use xlink:href="#10" y="8.684"/><use xlink:href="#11" y="10.855"/><use xlink:href="#12" y="13.026"/><use xlink:href="#1" y="15.197"/></svg><svg x="9605"><use xlink:href="#a"/><use xlink:href="#b" x="9.996" y="15.172"/><use xlink:href="#2"/><use xlink:href="#3" y="2.171"/><use xlink:href="#5" y="4.342"/><use xlink:href="#6" y="6.513"/><use xlink:href="#10" y="8.684"/><use xlink:href="#11" y="10.855"/><use xlink:href="#12" y="13.026"/><use xlink:href="#1" y="15.197"/></svg><svg x="9718"><use xlink:href="#a"/><use xlink:href="#b" x="10.996" y="15.172"/><use xlink:href="#2"/><use xlink:href="#3" y="2.171"/><use xlink:href="#5" y="4.342"/><use xlink:href="#6" y="6.513"/><use xlink:href="#10" y="8.684"/><use xlink:href="#11" y="10.855"/><use xlink:href="#12" y="13.026"/><path class="c" d="M0 15.197h8v2.171H0z"/><text y="16.867" class="d">~/Temp</text><text x="8.016" y="16.867" class="e"></text><text x="10.02" y="16.867" class="o">e</text><text x="11.022" y="16.867" class="h">xit</text></svg><svg x="9831"><use xlink:href="#a"/><use xlink:href="#b" x="11.996" y="15.172"/><use xlink:href="#2"/><use xlink:href="#3" y="2.171"/><use xlink:href="#5" y="4.342"/><use xlink:href="#6" y="6.513"/><use xlink:href="#10" y="8.684"/><use xlink:href="#11" y="10.855"/><use xlink:href="#12" y="13.026"/><path class="c" d="M0 15.197h8v2.171H0z"/><text y="16.867" class="d">~/Temp</text><text x="8.016" y="16.867" class="e"></text><text x="10.02" y="16.867" class="f">ex</text><text x="12.024" y="16.867" class="h">it</text></svg><svg x="9944"><use xlink:href="#a"/><use xlink:href="#b" x="12.996" y="15.172"/><use xlink:href="#2"/><use xlink:href="#3" y="2.171"/><use xlink:href="#5" y="4.342"/><use xlink:href="#6" y="6.513"/><use xlink:href="#10" y="8.684"/><use xlink:href="#11" y="10.855"/><use xlink:href="#12" y="13.026"/><path class="c" d="M0 15.197h8v2.171H0z"/><text y="16.867" class="d">~/Temp</text><text x="8.016" y="16.867" class="e"></text><text x="10.02" y="16.867" class="o">exi</text><text x="13.026" y="16.867" class="h">t</text></svg><svg x="10057"><use xlink:href="#a"/><use xlink:href="#b" x="13.996" y="15.172"/><use xlink:href="#2"/><use xlink:href="#3" y="2.171"/><use xlink:href="#5" y="4.342"/><use xlink:href="#6" y="6.513"/><use xlink:href="#10" y="8.684"/><use xlink:href="#11" y="10.855"/><use xlink:href="#12" y="13.026"/><use xlink:href="#13" y="15.197"/></svg><svg x="10170"><use xlink:href="#a"/><use xlink:href="#b" x="13.996" y="15.172"/><use xlink:href="#2"/><use xlink:href="#3" y="2.171"/><use xlink:href="#5" y="4.342"/><use xlink:href="#6" y="6.513"/><use xlink:href="#10" y="8.684"/><use xlink:href="#11" y="10.855"/><use xlink:href="#12" y="13.026"/><use xlink:href="#13" y="15.197"/></svg><svg x="10283"><use xlink:href="#a"/><use xlink:href="#b" x="-.004" y="17.343"/><use xlink:href="#2"/><use xlink:href="#3" y="2.171"/><use xlink:href="#5" y="4.342"/><use xlink:href="#6" y="6.513"/><use xlink:href="#10" y="8.684"/><use xlink:href="#11" y="10.855"/><use xlink:href="#12" y="13.026"/><use xlink:href="#13" y="15.197"/></svg><svg x="10396"><use xlink:href="#a"/><use xlink:href="#b" x="-.004" y="17.343"/><use xlink:href="#2"/><use xlink:href="#3" y="2.171"/><use xlink:href="#5" y="4.342"/><use xlink:href="#6" y="6.513"/><use xlink:href="#10" y="8.684"/><use xlink:href="#11" y="10.855"/><use xlink:href="#12" y="13.026"/><use xlink:href="#13" y="15.197"/></svg><svg x="10509"><use xlink:href="#a"/><use xlink:href="#b" x="-.004" y="17.343"/><use xlink:href="#2"/><use xlink:href="#3" y="2.171"/><use xlink:href="#5" y="4.342"/><use xlink:href="#6" y="6.513"/><use xlink:href="#10" y="8.684"/><use xlink:href="#11" y="10.855"/><use xlink:href="#12" y="13.026"/><use xlink:href="#13" y="15.197"/></svg></svg></g></g></svg></svg>